<svg width="1000" height="420" xmlns="http://www.w3.org/2000/svg">
  <style>
    .header { font: bold 16px sans-serif; fill: black; }
    .subheader { font: bold 14px sans-serif; fill: red; }
    .cell { font: 14px sans-serif; fill: red; text-anchor: middle; }
    .leftcell { font: 14px sans-serif; fill: black; text-anchor: middle; }
    .header-rect { fill: #d6f0e0; stroke: #000; stroke-width: 0.5; }
    .data-rect { stroke: #000; stroke-width: 0.5; }
  </style>

  <!-- Column headers -->
  <rect x="0" y="0" width="120" height="60" class="header-rect" />
  <text x="60" y="35" class="header">Period</text>

  <rect x="120" y="0" width="224" height="20" class="header-rect" />
  <text x="232" y="15" class="header">GWP</text>

  <rect x="344" y="0" width="224" height="20" class="header-rect" />
  <text x="456" y="15" class="header">GEP</text>

  <rect x="568" y="0" width="224" height="20" class="header-rect" />
  <text x="680" y="15" class="header">Attritional</text>

  <rect x="792" y="0" width="208" height="20" class="header-rect" />
  <text x="896" y="15" class="header">Large</text>

  <!-- Subheaders for Total Ultimate -->
  <rect x="568" y="20" width="224" height="20" class="header-rect" />
  <text x="680" y="35" class="header">Total Ultimate</text>

  <rect x="792" y="20" width="208" height="20" class="header-rect" />
  <text x="896" y="35" class="header">Total Ultimate</text>

  <!-- Subheaders -->
  <rect x="120" y="40" width="112" height="20" class="header-rect" />
  <text x="176" y="55" class="subheader">GWP</text>

  <rect x="232" y="40" width="112" height="20" class="header-rect" />
  <text x="288" y="55" class="subheader">GEP</text>

  <rect x="344" y="40" width="112" height="20" class="header-rect" />
  <text x="400" y="55" class="subheader">GWP</text>

  <rect x="456" y="40" width="112" height="20" class="header-rect" />
  <text x="512" y="55" class="subheader">GEP</text>

  <rect x="568" y="40" width="112" height="20" class="header-rect" />
  <text x="624" y="55" class="subheader">Paid</text>

  <rect x="680" y="40" width="112" height="20" class="header-rect" />
  <text x="736" y="55" class="subheader">O/S</text>

  <rect x="792" y="40" width="104" height="20" class="header-rect" />
  <text x="844" y="55" class="subheader">Paid</text>

  <rect x="896" y="40" width="104" height="20" class="header-rect" />
  <text x="948" y="55" class="subheader">O/S</text>

  <!-- Data Rows -->
  <!-- Row 1 -->
  <rect x="0" y="60" width="120" height="30" fill="#ffffff" class="data-rect" />
  <text x="60" y="80" class="leftcell">X</text>
  <rect x="120" y="60" width="112" height="30" fill="#ffffff" class="data-rect" />
  <text x="176" y="80" class="cell">0</text>
  <rect x="232" y="60" width="112" height="30" fill="#ffffff" class="data-rect" />
  <text x="288" y="80" class="cell">0</text>
  <rect x="344" y="60" width="112" height="30" fill="#ffffff" class="data-rect" />
  <text x="400" y="80" class="cell">0</text>
  <rect x="456" y="60" width="112" height="30" fill="#ffffff" class="data-rect" />
  <text x="512" y="80" class="cell">0</text>
  <rect x="568" y="60" width="112" height="30" fill="#ffffff" class="data-rect" />
  <text x="624" y="80" class="cell">0</text>
  <rect x="680" y="60" width="112" height="30" fill="#ffffff" class="data-rect" />
  <text x="736" y="80" class="cell">0</text>
  <rect x="792" y="60" width="104" height="30" fill="#ffffff" class="data-rect" />
  <text x="844" y="80" class="cell">0</text>
  <rect x="896" y="60" width="104" height="30" fill="#ffffff" class="data-rect" />
  <text x="948" y="80" class="cell">0</text>

  <!-- Row 2 -->
  <rect x="0" y="90" width="120" height="30" fill="#ffffff" stroke="#000" />
  <text x="60" y="110" class="leftcell">X</text>
  <rect x="120" y="90" width="112" height="30" stroke="#000" />
  <text x="176" y="110" class="cell">0</text>
  <rect x="232" y="90" width="112" height="30" stroke="#000" />
  <text x="288" y="110" class="cell">0</text>
  <rect x="344" y="90" width="112" height="30" stroke="#000" />
  <text x="400" y="110" class="cell">0</text>
  <rect x="456" y="90" width="112" height="30" stroke="#000" />
  <text x="512" y="110" class="cell">0</text>
  <rect x="568" y="90" width="112" height="30" stroke="#000" />
  <text x="624" y="110" class="cell">0</text>
  <rect x="680" y="90" width="112" height="30" stroke="#000" />
  <text x="736" y="110" class="cell">0</text>
  <rect x="792" y="90" width="104" height="30" stroke="#000" />
  <text x="844" y="110" class="cell">0</text>
  <rect x="896" y="90" width="104" height="30" stroke="#000" />
  <text x="948" y="110" class="cell">0</text>

  <!-- Row 3 -->
  <rect x="0" y="120" width="120" height="30" fill="#f9f9f9" stroke="#000" />
  <text x="60" y="140" class="leftcell">X</text>
  <rect x="120" y="120" width="112" height="30" stroke="#000" />
  <text x="176" y="140" class="cell">0</text>
  <rect x="232" y="120" width="112" height="30" stroke="#000" />
  <text x="288" y="140" class="cell">0</text>
  <rect x="344" y="120" width="112" height="30" stroke="#000" />
  <text x="400" y="140" class="cell">0</text>
  <rect x="456" y="120" width="112" height="30" stroke="#000" />
  <text x="512" y="140" class="cell">0</text>
  <rect x="568" y="120" width="112" height="30" stroke="#000" />
  <text x="624" y="140" class="cell">0</text>
  <rect x="680" y="120" width="112" height="30" stroke="#000" />
  <text x="736" y="140" class="cell">0</text>
  <rect x="792" y="120" width="104" height="30" stroke="#000" />
  <text x="844" y="140" class="cell">0</text>
  <rect x="896" y="120" width="104" height="30" stroke="#000" />
  <text x="948" y="140" class="cell">0</text>

  <!-- Row 4 -->
  <rect x="0" y="150" width="120" height="30" fill="#ffffff" stroke="#000" />
  <text x="60" y="170" class="leftcell">X</text>
  <rect x="120" y="150" width="112" height="30" stroke="#000" />
  <text x="176" y="170" class="cell">0</text>
  <rect x="232" y="150" width="112" height="30" stroke="#000" />
  <text x="288" y="170" class="cell">0</text>
  <rect x="344" y="150" width="112" height="30" stroke="#000" />
  <text x="400" y="170" class="cell">0</text>
  <rect x="456" y="150" width="112" height="30" stroke="#000" />
  <text x="512" y="170" class="cell">0</text>
  <rect x="568" y="150" width="112" height="30" stroke="#000" />
  <text x="624" y="170" class="cell">0</text>
  <rect x="680" y="150" width="112" height="30" stroke="#000" />
  <text x="736" y="170" class="cell">0</text>
  <rect x="792" y="150" width="104" height="30" stroke="#000" />
  <text x="844" y="170" class="cell">0</text>
  <rect x="896" y="150" width="104" height="30" stroke="#000" />
  <text x="948" y="170" class="cell">0</text>

  <!-- Row 5 -->
  <rect x="0" y="180" width="120" height="30" fill="#f9f9f9" stroke="#000" />
  <text x="60" y="200" class="leftcell">X</text>
  <rect x="120" y="180" width="112" height="30" stroke="#000" />
  <text x="176" y="200" class="cell">0</text>
  <rect x="232" y="180" width="112" height="30" stroke="#000" />
  <text x="288" y="200" class="cell">0</text>
  <rect x="344" y="180" width="112" height="30" stroke="#000" />
  <text x="400" y="200" class="cell">0</text>
  <rect x="456" y="180" width="112" height="30" stroke="#000" />
  <text x="512" y="200" class="cell">0</text>
  <rect x="568" y="180" width="112" height="30" stroke="#000" />
  <text x="624" y="200" class="cell">0</text>
  <rect x="680" y="180" width="112" height="30" stroke="#000" />
  <text x="736" y="200" class="cell">0</text>
  <rect x="792" y="180" width="104" height="30" stroke="#000" />
  <text x="844" y="200" class="cell">0</text>
  <rect x="896" y="180" width="104" height="30" stroke="#000" />
  <text x="948" y="200" class="cell">0</text>

  <!-- Row 6 -->
  <rect x="0" y="210" width="120" height="30" fill="#ffffff" stroke="#000" />
  <text x="60" y="230" class="leftcell">X</text>
  <rect x="120" y="210" width="112" height="30" stroke="#000" />
  <text x="176" y="230" class="cell">0</text>
  <rect x="232" y="210" width="112" height="30" stroke="#000" />
  <text x="288" y="230" class="cell">0</text>
  <rect x="344" y="210" width="112" height="30" stroke="#000" />
  <text x="400" y="230" class="cell">0</text>
  <rect x="456" y="210" width="112" height="30" stroke="#000" />
  <text x="512" y="230" class="cell">0</text>
  <rect x="568" y="210" width="112" height="30" stroke="#000" />
  <text x="624" y="230" class="cell">0</text>
  <rect x="680" y="210" width="112" height="30" stroke="#000" />
  <text x="736" y="230" class="cell">0</text>
  <rect x="792" y="210" width="104" height="30" stroke="#000" />
  <text x="844" y="230" class="cell">0</text>
  <rect x="896" y="210" width="104" height="30" stroke="#000" />
  <text x="948" y="230" class="cell">0</text>

  <!-- Row 7 -->
  <rect x="0" y="240" width="120" height="30" fill="#f9f9f9" stroke="#000" />
  <text x="60" y="260" class="leftcell">X</text>
  <rect x="120" y="240" width="112" height="30" stroke="#000" />
  <text x="176" y="260" class="cell">0</text>
  <rect x="232" y="240" width="112" height="30" stroke="#000" />
  <text x="288" y="260" class="cell">0</text>
  <rect x="344" y="240" width="112" height="30" stroke="#000" />
  <text x="400" y="260" class="cell">0</text>
  <rect x="456" y="240" width="112" height="30" stroke="#000" />
  <text x="512" y="260" class="cell">0</text>
  <rect x="568" y="240" width="112" height="30" stroke="#000" />
  <text x="624" y="260" class="cell">0</text>
  <rect x="680" y="240" width="112" height="30" stroke="#000" />
  <text x="736" y="260" class="cell">0</text>
  <rect x="792" y="240" width="104" height="30" stroke="#000" />
  <text x="844" y="260" class="cell">0</text>
  <rect x="896" y="240" width="104" height="30" stroke="#000" />
  <text x="948" y="260" class="cell">0</text>

  <!-- Row 8 -->
  <rect x="0" y="270" width="120" height="30" fill="#ffffff" stroke="#000" />
  <text x="60" y="290" class="leftcell">X</text>
  <rect x="120" y="270" width="112" height="30" stroke="#000" />
  <text x="176" y="290" class="cell">0</text>
  <rect x="232" y="270" width="112" height="30" stroke="#000" />
  <text x="288" y="290" class="cell">0</text>
  <rect x="344" y="270" width="112" height="30" stroke="#000" />
  <text x="400" y="290" class="cell">0</text>
  <rect x="456" y="270" width="112" height="30" stroke="#000" />
  <text x="512" y="290" class="cell">0</text>
  <rect x="568" y="270" width="112" height="30" stroke="#000" />
  <text x="624" y="290" class="cell">0</text>
  <rect x="680" y="270" width="112" height="30" stroke="#000" />
  <text x="736" y="290" class="cell">0</text>
  <rect x="792" y="270" width="104" height="30" stroke="#000" />
  <text x="844" y="290" class="cell">0</text>
  <rect x="896" y="270" width="104" height="30" stroke="#000" />
  <text x="948" y="290" class="cell">0</text>

  <!-- Totals Row -->
  <rect x="0" y="300" width="120" height="30" fill="#d6f0e0" stroke="#000" />
  <text x="60" y="320" class="header">Total</text>
  <rect x="120" y="300" width="112" height="30" fill="#d6f0e0" stroke="#000" />
  <text x="176" y="320" class="cell">0</text>
  <rect x="232" y="300" width="112" height="30" fill="#d6f0e0" stroke="#000" />
  <text x="288" y="320" class="cell">0</text>
  <rect x="344" y="300" width="112" height="30" fill="#d6f0e0" stroke="#000" />
  <text x="400" y="320" class="cell">0</text>
  <rect x="456" y="300" width="112" height="30" fill="#d6f0e0" stroke="#000" />
  <text x="512" y="320" class="cell">0</text>
  <rect x="568" y="300" width="112" height="30" fill="#d6f0e0" stroke="#000" />
  <text x="624" y="320" class="cell">0</text>
  <rect x="680" y="300" width="112" height="30" fill="#d6f0e0" stroke="#000" />
  <text x="736" y="320" class="cell">0</text>
  <rect x="792" y="300" width="104" height="30" fill="#d6f0e0" stroke="#000" />
  <text x="844" y="320" class="cell">0</text>
  <rect x="896" y="300" width="104" height="30" fill="#d6f0e0" stroke="#000" />
  <text x="948" y="320" class="cell">0</text>

</svg>
