<svg width="1000" height="420" xmlns="http://www.w3.org/2000/svg">
  <style>
    .header { font: bold 16px sans-serif; fill: black; }
    .subheader { font: bold 14px sans-serif; fill: red; }
    .cell { font: 14px sans-serif; fill: red; text-anchor: middle; }
    .leftcell { font: 14px sans-serif; fill: black; text-anchor: middle; }
    .header-rect { fill: #d6f0e0; stroke: #000; stroke-width: 0.5; }
    .data-rect { stroke: #000; stroke-width: 0.5; }
  </style>

  <!-- Column headers -->
  <rect x="0" y="0" width="120" height="60" class="header-rect" />
  <text x="60" y="35" class="header">Period</text>

  <rect x="120" y="0" width="800" height="20" class="header-rect" />
  <text x="520" y="15" class="header">Loss Ratios</text>

  <rect x="120" y="20" width="800" height="20" class="header-rect" />
  <text x="520" y="35" class="header">Large</text>

  <!-- Subheaders -->
  <rect x="120" y="40" width="160" height="20" class="header-rect" />
  <text x="200" y="55" class="subheader">Paid</text>

  <rect x="280" y="40" width="160" height="20" class="header-rect" />
  <text x="360" y="55" class="subheader">O/S</text>

  <rect x="440" y="40" width="160" height="20" class="header-rect" />
  <text x="520" y="55" class="subheader">Incurred</text>

  <rect x="600" y="40" width="160" height="20" class="header-rect" />
  <text x="680" y="55" class="subheader">IBNR</text>

  <rect x="760" y="40" width="160" height="20" class="header-rect" />
  <text x="840" y="55" class="subheader">Ultimate</text>

  <!-- Data Rows -->
  <!-- Row 1 -->
  <rect x="0" y="60" width="120" height="30" fill="#ffffff" class="data-rect" />
  <text x="60" y="80" class="leftcell">X</text>
  <rect x="120" y="60" width="160" height="30" fill="#ffffff" class="data-rect" />
  <text x="200" y="80" class="cell">0</text>
  <rect x="280" y="60" width="160" height="30" fill="#ffffff" class="data-rect" />
  <text x="360" y="80" class="cell">0</text>
  <rect x="440" y="60" width="160" height="30" fill="#ffffff" class="data-rect" />
  <text x="520" y="80" class="cell">0</text>
  <rect x="600" y="60" width="160" height="30" fill="#ffffff" class="data-rect" />
  <text x="680" y="80" class="cell">0</text>
  <rect x="760" y="60" width="160" height="30" fill="#ffffff" class="data-rect" />
  <text x="840" y="80" class="cell">0</text>

  <!-- Row 2 -->
  <rect x="0" y="90" width="120" height="30" fill="#ffffff" class="data-rect" />
  <text x="60" y="110" class="leftcell">X</text>
  <rect x="120" y="90" width="160" height="30" fill="#ffffff" class="data-rect" />
  <text x="200" y="110" class="cell">0</text>
  <rect x="280" y="90" width="160" height="30" fill="#ffffff" class="data-rect" />
  <text x="360" y="110" class="cell">0</text>
  <rect x="440" y="90" width="160" height="30" fill="#ffffff" class="data-rect" />
  <text x="520" y="110" class="cell">0</text>
  <rect x="600" y="90" width="160" height="30" fill="#ffffff" class="data-rect" />
  <text x="680" y="110" class="cell">0</text>
  <rect x="760" y="90" width="160" height="30" fill="#ffffff" class="data-rect" />
  <text x="840" y="110" class="cell">0</text>

  <!-- Row 3 -->
  <rect x="0" y="120" width="120" height="30" fill="#ffffff" class="data-rect" />
  <text x="60" y="140" class="leftcell">X</text>
  <rect x="120" y="120" width="160" height="30" fill="#ffffff" class="data-rect" />
  <text x="200" y="140" class="cell">0</text>
  <rect x="280" y="120" width="160" height="30" fill="#ffffff" class="data-rect" />
  <text x="360" y="140" class="cell">0</text>
  <rect x="440" y="120" width="160" height="30" fill="#ffffff" class="data-rect" />
  <text x="520" y="140" class="cell">0</text>
  <rect x="600" y="120" width="160" height="30" fill="#ffffff" class="data-rect" />
  <text x="680" y="140" class="cell">0</text>
  <rect x="760" y="120" width="160" height="30" fill="#ffffff" class="data-rect" />
  <text x="840" y="140" class="cell">0</text>

  <!-- Row 4 -->
  <rect x="0" y="150" width="120" height="30" fill="#ffffff" class="data-rect" />
  <text x="60" y="170" class="leftcell">X</text>
  <rect x="120" y="150" width="160" height="30" fill="#ffffff" class="data-rect" />
  <text x="200" y="170" class="cell">0</text>
  <rect x="280" y="150" width="160" height="30" fill="#ffffff" class="data-rect" />
  <text x="360" y="170" class="cell">0</text>
  <rect x="440" y="150" width="160" height="30" fill="#ffffff" class="data-rect" />
  <text x="520" y="170" class="cell">0</text>
  <rect x="600" y="150" width="160" height="30" fill="#ffffff" class="data-rect" />
  <text x="680" y="170" class="cell">0</text>
  <rect x="760" y="150" width="160" height="30" fill="#ffffff" class="data-rect" />
  <text x="840" y="170" class="cell">0</text>

  <!-- Row 5 -->
  <rect x="0" y="180" width="120" height="30" fill="#ffffff" class="data-rect" />
  <text x="60" y="200" class="leftcell">X</text>
  <rect x="120" y="180" width="160" height="30" fill="#ffffff" class="data-rect" />
  <text x="200" y="200" class="cell">0</text>
  <rect x="280" y="180" width="160" height="30" fill="#ffffff" class="data-rect" />
  <text x="360" y="200" class="cell">0</text>
  <rect x="440" y="180" width="160" height="30" fill="#ffffff" class="data-rect" />
  <text x="520" y="200" class="cell">0</text>
  <rect x="600" y="180" width="160" height="30" fill="#ffffff" class="data-rect" />
  <text x="680" y="200" class="cell">0</text>
  <rect x="760" y="180" width="160" height="30" fill="#ffffff" class="data-rect" />
  <text x="840" y="200" class="cell">0</text>

  <!-- Row 6 -->
  <rect x="0" y="210" width="120" height="30" fill="#ffffff" class="data-rect" />
  <text x="60" y="230" class="leftcell">X</text>
  <rect x="120" y="210" width="160" height="30" fill="#ffffff" class="data-rect" />
  <text x="200" y="230" class="cell">0</text>
  <rect x="280" y="210" width="160" height="30" fill="#ffffff" class="data-rect" />
  <text x="360" y="230" class="cell">0</text>
  <rect x="440" y="210" width="160" height="30" fill="#ffffff" class="data-rect" />
  <text x="520" y="230" class="cell">0</text>
  <rect x="600" y="210" width="160" height="30" fill="#ffffff" class="data-rect" />
  <text x="680" y="230" class="cell">0</text>
  <rect x="760" y="210" width="160" height="30" fill="#ffffff" class="data-rect" />
  <text x="840" y="230" class="cell">0</text>

  <!-- Row 7 -->
  <rect x="0" y="240" width="120" height="30" fill="#ffffff" class="data-rect" />
  <text x="60" y="260" class="leftcell">X</text>
  <rect x="120" y="240" width="160" height="30" fill="#ffffff" class="data-rect" />
  <text x="200" y="260" class="cell">0</text>
  <rect x="280" y="240" width="160" height="30" fill="#ffffff" class="data-rect" />
  <text x="360" y="260" class="cell">0</text>
  <rect x="440" y="240" width="160" height="30" fill="#ffffff" class="data-rect" />
  <text x="520" y="260" class="cell">0</text>
  <rect x="600" y="240" width="160" height="30" fill="#ffffff" class="data-rect" />
  <text x="680" y="260" class="cell">0</text>
  <rect x="760" y="240" width="160" height="30" fill="#ffffff" class="data-rect" />
  <text x="840" y="260" class="cell">0</text>

  <!-- Row 8 -->
  <rect x="0" y="270" width="120" height="30" fill="#ffffff" class="data-rect" />
  <text x="60" y="290" class="leftcell">X</text>
  <rect x="120" y="270" width="160" height="30" fill="#ffffff" class="data-rect" />
  <text x="200" y="290" class="cell">0</text>
  <rect x="280" y="270" width="160" height="30" fill="#ffffff" class="data-rect" />
  <text x="360" y="290" class="cell">0</text>
  <rect x="440" y="270" width="160" height="30" fill="#ffffff" class="data-rect" />
  <text x="520" y="290" class="cell">0</text>
  <rect x="600" y="270" width="160" height="30" fill="#ffffff" class="data-rect" />
  <text x="680" y="290" class="cell">0</text>
  <rect x="760" y="270" width="160" height="30" fill="#ffffff" class="data-rect" />
  <text x="840" y="290" class="cell">0</text>

  <!-- Totals Row -->
  <rect x="0" y="300" width="120" height="30" class="header-rect" />
  <text x="60" y="320" class="header">Total</text>
  <rect x="120" y="300" width="160" height="30" class="header-rect" />
  <text x="200" y="320" class="header">0</text>
  <rect x="280" y="300" width="160" height="30" class="header-rect" />
  <text x="360" y="320" class="header">0</text>
  <rect x="440" y="300" width="160" height="30" class="header-rect" />
  <text x="520" y="320" class="header">0</text>
  <rect x="600" y="300" width="160" height="30" class="header-rect" />
  <text x="680" y="320" class="header">0</text>
  <rect x="760" y="300" width="160" height="30" class="header-rect" />
  <text x="840" y="320" class="header">0</text>

</svg>
