<svg width="1200" height="400" xmlns="http://www.w3.org/2000/svg">
  <style>
    .header-rect { fill: #d5e8d4; stroke: #ccc; stroke-width: 0.5; }
    .data-rect { stroke: #ccc; stroke-width: 0.5; }
    .text { font-family: Arial, sans-serif; font-size: 12px; fill: #333; }
    .header-text { font-weight: bold; }
    .total-text { font-weight: bold; fill: #333; }
    .loss-ratio-text { fill: #d32f2f; font-weight: bold; }
  </style>
  
  <!-- Header Row 1 -->
  <rect x="0" y="0" width="1200" height="30" fill="#d5e8d4" stroke="#ccc"/>
  <text x="10" y="20" class="text header-text">Period</text>
  <text x="100" y="20" class="text header-text">GWP</text>
  <text x="200" y="20" class="text header-text">GEP</text>
  <text x="300" y="20" class="text header-text">Attritional</text>
  <text x="600" y="20" class="text header-text">Large</text>
  <text x="900" y="20" class="text header-text">Total Ultimate</text>
  <text x="1050" y="20" class="text header-text">Comm.</text>
  <text x="1100" y="20" class="text header-text">CCR</text>
  
  <!-- Header Row 2 - Attritional Expanded -->
  <rect x="300" y="30" width="300" height="30" fill="#d5e8d4" stroke="#ccc"/>
  <text x="310" y="50" class="text header-text">Paid</text>
  <text x="360" y="50" class="text header-text">O/S</text>
  <text x="410" y="50" class="text header-text">Incurred</text>
  <text x="470" y="50" class="text header-text">IBNR</text>
  <text x="520" y="50" class="text header-text">Ultimate</text>
  
  <!-- Header Row 2 - Large Expanded -->
  <rect x="600" y="30" width="300" height="30" fill="#d5e8d4" stroke="#ccc"/>
  <text x="610" y="50" class="text header-text">Paid</text>
  <text x="660" y="50" class="text header-text">O/S</text>
  <text x="710" y="50" class="text header-text">Incurred</text>
  <text x="770" y="50" class="text header-text">IBNR</text>
  <text x="820" y="50" class="text header-text">Ultimate</text>
  
  <!-- Header Row 2 - Other columns -->
  <rect x="0" y="30" width="300" height="30" fill="#d5e8d4" stroke="#ccc"/>
  <rect x="900" y="30" width="300" height="30" fill="#d5e8d4" stroke="#ccc"/>
  
  <!-- Data Rows -->
  <!-- Row 1 -->
  <rect x="0" y="60" width="100" height="30" fill="#ffffff" stroke="#ccc"/>
  <text x="10" y="80" class="text">X</text>
  <rect x="100" y="60" width="100" height="30" fill="#ffffff" stroke="#ccc"/>
  <text x="110" y="80" class="text">0</text>
  <rect x="200" y="60" width="100" height="30" fill="#ffffff" stroke="#ccc"/>
  <text x="210" y="80" class="text">0</text>
  <rect x="300" y="60" width="60" height="30" fill="#ffffff" stroke="#ccc"/>
  <text x="310" y="80" class="text">0</text>
  <rect x="360" y="60" width="50" height="30" fill="#ffffff" stroke="#ccc"/>
  <text x="370" y="80" class="text">0</text>
  <rect x="410" y="60" width="60" height="30" fill="#ffffff" stroke="#ccc"/>
  <text x="420" y="80" class="text">0</text>
  <rect x="470" y="60" width="50" height="30" fill="#ffffff" stroke="#ccc"/>
  <text x="480" y="80" class="text">0</text>
  <rect x="520" y="60" width="80" height="30" fill="#ffffff" stroke="#ccc"/>
  <text x="530" y="80" class="text">0</text>
  <rect x="600" y="60" width="60" height="30" fill="#ffffff" stroke="#ccc"/>
  <text x="610" y="80" class="text">0</text>
  <rect x="660" y="60" width="50" height="30" fill="#ffffff" stroke="#ccc"/>
  <text x="670" y="80" class="text">0</text>
  <rect x="710" y="60" width="60" height="30" fill="#ffffff" stroke="#ccc"/>
  <text x="720" y="80" class="text">0</text>
  <rect x="770" y="60" width="50" height="30" fill="#ffffff" stroke="#ccc"/>
  <text x="780" y="80" class="text">0</text>
  <rect x="820" y="60" width="80" height="30" fill="#ffffff" stroke="#ccc"/>
  <text x="830" y="80" class="text">0</text>
  <rect x="900" y="60" width="150" height="30" fill="#ffffff" stroke="#ccc"/>
  <text x="910" y="80" class="text">0</text>
  <rect x="1050" y="60" width="50" height="30" fill="#ffffff" stroke="#ccc"/>
  <text x="1060" y="80" class="text">0</text>
  <rect x="1100" y="60" width="100" height="30" fill="#ffffff" stroke="#ccc"/>
  <text x="1110" y="80" class="text">0</text>
  
  <!-- Row 2 -->
  <rect x="0" y="90" width="100" height="30" fill="#ffffff" stroke="#ccc"/>
  <text x="10" y="110" class="text">X</text>
  <rect x="100" y="90" width="100" height="30" fill="#ffffff" stroke="#ccc"/>
  <text x="110" y="110" class="text">0</text>
  <rect x="200" y="90" width="100" height="30" fill="#ffffff" stroke="#ccc"/>
  <text x="210" y="110" class="text">0</text>
  <rect x="300" y="90" width="60" height="30" fill="#ffffff" stroke="#ccc"/>
  <text x="310" y="110" class="text">0</text>
  <rect x="360" y="90" width="50" height="30" fill="#ffffff" stroke="#ccc"/>
  <text x="370" y="110" class="text">0</text>
  <rect x="410" y="90" width="60" height="30" fill="#ffffff" stroke="#ccc"/>
  <text x="420" y="110" class="text">0</text>
  <rect x="470" y="90" width="50" height="30" fill="#ffffff" stroke="#ccc"/>
  <text x="480" y="110" class="text">0</text>
  <rect x="520" y="90" width="80" height="30" fill="#ffffff" stroke="#ccc"/>
  <text x="530" y="110" class="text">0</text>
  <rect x="600" y="90" width="60" height="30" fill="#ffffff" stroke="#ccc"/>
  <text x="610" y="110" class="text">0</text>
  <rect x="660" y="90" width="50" height="30" fill="#ffffff" stroke="#ccc"/>
  <text x="670" y="110" class="text">0</text>
  <rect x="710" y="90" width="60" height="30" fill="#ffffff" stroke="#ccc"/>
  <text x="720" y="110" class="text">0</text>
  <rect x="770" y="90" width="50" height="30" fill="#ffffff" stroke="#ccc"/>
  <text x="780" y="110" class="text">0</text>
  <rect x="820" y="90" width="80" height="30" fill="#ffffff" stroke="#ccc"/>
  <text x="830" y="110" class="text">0</text>
  <rect x="900" y="90" width="150" height="30" fill="#ffffff" stroke="#ccc"/>
  <text x="910" y="110" class="text">0</text>
  <rect x="1050" y="90" width="50" height="30" fill="#ffffff" stroke="#ccc"/>
  <text x="1060" y="110" class="text">0</text>
  <rect x="1100" y="90" width="100" height="30" fill="#ffffff" stroke="#ccc"/>
  <text x="1110" y="110" class="text">0</text>
  
  <!-- Row 3 -->
  <rect x="0" y="120" width="100" height="30" fill="#ffffff" stroke="#ccc"/>
  <text x="10" y="140" class="text">X</text>
  <rect x="100" y="120" width="100" height="30" fill="#ffffff" stroke="#ccc"/>
  <text x="110" y="140" class="text">0</text>
  <rect x="200" y="120" width="100" height="30" fill="#ffffff" stroke="#ccc"/>
  <text x="210" y="140" class="text">0</text>
  <rect x="300" y="120" width="60" height="30" fill="#ffffff" stroke="#ccc"/>
  <text x="310" y="140" class="text">0</text>
  <rect x="360" y="120" width="50" height="30" fill="#ffffff" stroke="#ccc"/>
  <text x="370" y="140" class="text">0</text>
  <rect x="410" y="120" width="60" height="30" fill="#ffffff" stroke="#ccc"/>
  <text x="420" y="140" class="text">0</text>
  <rect x="470" y="120" width="50" height="30" fill="#ffffff" stroke="#ccc"/>
  <text x="480" y="140" class="text">0</text>
  <rect x="520" y="120" width="80" height="30" fill="#ffffff" stroke="#ccc"/>
  <text x="530" y="140" class="text">0</text>
  <rect x="600" y="120" width="60" height="30" fill="#ffffff" stroke="#ccc"/>
  <text x="610" y="140" class="text">0</text>
  <rect x="660" y="120" width="50" height="30" fill="#ffffff" stroke="#ccc"/>
  <text x="670" y="140" class="text">0</text>
  <rect x="710" y="120" width="60" height="30" fill="#ffffff" stroke="#ccc"/>
  <text x="720" y="140" class="text">0</text>
  <rect x="770" y="120" width="50" height="30" fill="#ffffff" stroke="#ccc"/>
  <text x="780" y="140" class="text">0</text>
  <rect x="820" y="120" width="80" height="30" fill="#ffffff" stroke="#ccc"/>
  <text x="830" y="140" class="text">0</text>
  <rect x="900" y="120" width="150" height="30" fill="#ffffff" stroke="#ccc"/>
  <text x="910" y="140" class="text">0</text>
  <rect x="1050" y="120" width="50" height="30" fill="#ffffff" stroke="#ccc"/>
  <text x="1060" y="140" class="text">0</text>
  <rect x="1100" y="120" width="100" height="30" fill="#ffffff" stroke="#ccc"/>
  <text x="1110" y="140" class="text">0</text>
  
  <!-- Row 4 -->
  <rect x="0" y="150" width="100" height="30" fill="#ffffff" stroke="#ccc"/>
  <text x="10" y="170" class="text">X</text>
  <rect x="100" y="150" width="100" height="30" fill="#ffffff" stroke="#ccc"/>
  <text x="110" y="170" class="text">0</text>
  <rect x="200" y="150" width="100" height="30" fill="#ffffff" stroke="#ccc"/>
  <text x="210" y="170" class="text">0</text>
  <rect x="300" y="150" width="60" height="30" fill="#ffffff" stroke="#ccc"/>
  <text x="310" y="170" class="text">0</text>
  <rect x="360" y="150" width="50" height="30" fill="#ffffff" stroke="#ccc"/>
  <text x="370" y="170" class="text">0</text>
  <rect x="410" y="150" width="60" height="30" fill="#ffffff" stroke="#ccc"/>
  <text x="420" y="170" class="text">0</text>
  <rect x="470" y="150" width="50" height="30" fill="#ffffff" stroke="#ccc"/>
  <text x="480" y="170" class="text">0</text>
  <rect x="520" y="150" width="80" height="30" fill="#ffffff" stroke="#ccc"/>
  <text x="530" y="170" class="text">0</text>
  <rect x="600" y="150" width="60" height="30" fill="#ffffff" stroke="#ccc"/>
  <text x="610" y="170" class="text">0</text>
  <rect x="660" y="150" width="50" height="30" fill="#ffffff" stroke="#ccc"/>
  <text x="670" y="170" class="text">0</text>
  <rect x="710" y="150" width="60" height="30" fill="#ffffff" stroke="#ccc"/>
  <text x="720" y="170" class="text">0</text>
  <rect x="770" y="150" width="50" height="30" fill="#ffffff" stroke="#ccc"/>
  <text x="780" y="170" class="text">0</text>
  <rect x="820" y="150" width="80" height="30" fill="#ffffff" stroke="#ccc"/>
  <text x="830" y="170" class="text">0</text>
  <rect x="900" y="150" width="150" height="30" fill="#ffffff" stroke="#ccc"/>
  <text x="910" y="170" class="text">0</text>
  <rect x="1050" y="150" width="50" height="30" fill="#ffffff" stroke="#ccc"/>
  <text x="1060" y="170" class="text">0</text>
  <rect x="1100" y="150" width="100" height="30" fill="#ffffff" stroke="#ccc"/>
  <text x="1110" y="170" class="text">0</text>
  
  <!-- Row 5 -->
  <rect x="0" y="180" width="100" height="30" fill="#ffffff" stroke="#ccc"/>
  <text x="10" y="200" class="text">X</text>
  <rect x="100" y="180" width="100" height="30" fill="#ffffff" stroke="#ccc"/>
  <text x="110" y="200" class="text">0</text>
  <rect x="200" y="180" width="100" height="30" fill="#ffffff" stroke="#ccc"/>
  <text x="210" y="200" class="text">0</text>
  <rect x="300" y="180" width="60" height="30" fill="#ffffff" stroke="#ccc"/>
  <text x="310" y="200" class="text">0</text>
  <rect x="360" y="180" width="50" height="30" fill="#ffffff" stroke="#ccc"/>
  <text x="370" y="200" class="text">0</text>
  <rect x="410" y="180" width="60" height="30" fill="#ffffff" stroke="#ccc"/>
  <text x="420" y="200" class="text">0</text>
  <rect x="470" y="180" width="50" height="30" fill="#ffffff" stroke="#ccc"/>
  <text x="480" y="200" class="text">0</text>
  <rect x="520" y="180" width="80" height="30" fill="#ffffff" stroke="#ccc"/>
  <text x="530" y="200" class="text">0</text>
  <rect x="600" y="180" width="60" height="30" fill="#ffffff" stroke="#ccc"/>
  <text x="610" y="200" class="text">0</text>
  <rect x="660" y="180" width="50" height="30" fill="#ffffff" stroke="#ccc"/>
  <text x="670" y="200" class="text">0</text>
  <rect x="710" y="180" width="60" height="30" fill="#ffffff" stroke="#ccc"/>
  <text x="720" y="200" class="text">0</text>
  <rect x="770" y="180" width="50" height="30" fill="#ffffff" stroke="#ccc"/>
  <text x="780" y="200" class="text">0</text>
  <rect x="820" y="180" width="80" height="30" fill="#ffffff" stroke="#ccc"/>
  <text x="830" y="200" class="text">0</text>
  <rect x="900" y="180" width="150" height="30" fill="#ffffff" stroke="#ccc"/>
  <text x="910" y="200" class="text">0</text>
  <rect x="1050" y="180" width="50" height="30" fill="#ffffff" stroke="#ccc"/>
  <text x="1060" y="200" class="text">0</text>
  <rect x="1100" y="180" width="100" height="30" fill="#ffffff" stroke="#ccc"/>
  <text x="1110" y="200" class="text">0</text>
  
  <!-- Row 6 -->
  <rect x="0" y="210" width="100" height="30" fill="#ffffff" stroke="#ccc"/>
  <text x="10" y="230" class="text">X</text>
  <rect x="100" y="210" width="100" height="30" fill="#ffffff" stroke="#ccc"/>
  <text x="110" y="230" class="text">0</text>
  <rect x="200" y="210" width="100" height="30" fill="#ffffff" stroke="#ccc"/>
  <text x="210" y="230" class="text">0</text>
  <rect x="300" y="210" width="60" height="30" fill="#ffffff" stroke="#ccc"/>
  <text x="310" y="230" class="text">0</text>
  <rect x="360" y="210" width="50" height="30" fill="#ffffff" stroke="#ccc"/>
  <text x="370" y="230" class="text">0</text>
  <rect x="410" y="210" width="60" height="30" fill="#ffffff" stroke="#ccc"/>
  <text x="420" y="230" class="text">0</text>
  <rect x="470" y="210" width="50" height="30" fill="#ffffff" stroke="#ccc"/>
  <text x="480" y="230" class="text">0</text>
  <rect x="520" y="210" width="80" height="30" fill="#ffffff" stroke="#ccc"/>
  <text x="530" y="230" class="text">0</text>
  <rect x="600" y="210" width="60" height="30" fill="#ffffff" stroke="#ccc"/>
  <text x="610" y="230" class="text">0</text>
  <rect x="660" y="210" width="50" height="30" fill="#ffffff" stroke="#ccc"/>
  <text x="670" y="230" class="text">0</text>
  <rect x="710" y="210" width="60" height="30" fill="#ffffff" stroke="#ccc"/>
  <text x="720" y="230" class="text">0</text>
  <rect x="770" y="210" width="50" height="30" fill="#ffffff" stroke="#ccc"/>
  <text x="780" y="230" class="text">0</text>
  <rect x="820" y="210" width="80" height="30" fill="#ffffff" stroke="#ccc"/>
  <text x="830" y="230" class="text">0</text>
  <rect x="900" y="210" width="150" height="30" fill="#ffffff" stroke="#ccc"/>
  <text x="910" y="230" class="text">0</text>
  <rect x="1050" y="210" width="50" height="30" fill="#ffffff" stroke="#ccc"/>
  <text x="1060" y="230" class="text">0</text>
  <rect x="1100" y="210" width="100" height="30" fill="#ffffff" stroke="#ccc"/>
  <text x="1110" y="230" class="text">0</text>
  
  <!-- Row 7 -->
  <rect x="0" y="240" width="100" height="30" fill="#ffffff" stroke="#ccc"/>
  <text x="10" y="260" class="text">X</text>
  <rect x="100" y="240" width="100" height="30" fill="#ffffff" stroke="#ccc"/>
  <text x="110" y="260" class="text">0</text>
  <rect x="200" y="240" width="100" height="30" fill="#ffffff" stroke="#ccc"/>
  <text x="210" y="260" class="text">0</text>
  <rect x="300" y="240" width="60" height="30" fill="#ffffff" stroke="#ccc"/>
  <text x="310" y="260" class="text">0</text>
  <rect x="360" y="240" width="50" height="30" fill="#ffffff" stroke="#ccc"/>
  <text x="370" y="260" class="text">0</text>
  <rect x="410" y="240" width="60" height="30" fill="#ffffff" stroke="#ccc"/>
  <text x="420" y="260" class="text">0</text>
  <rect x="470" y="240" width="50" height="30" fill="#ffffff" stroke="#ccc"/>
  <text x="480" y="260" class="text">0</text>
  <rect x="520" y="240" width="80" height="30" fill="#ffffff" stroke="#ccc"/>
  <text x="530" y="260" class="text">0</text>
  <rect x="600" y="240" width="60" height="30" fill="#ffffff" stroke="#ccc"/>
  <text x="610" y="260" class="text">0</text>
  <rect x="660" y="240" width="50" height="30" fill="#ffffff" stroke="#ccc"/>
  <text x="670" y="260" class="text">0</text>
  <rect x="710" y="240" width="60" height="30" fill="#ffffff" stroke="#ccc"/>
  <text x="720" y="260" class="text">0</text>
  <rect x="770" y="240" width="50" height="30" fill="#ffffff" stroke="#ccc"/>
  <text x="780" y="260" class="text">0</text>
  <rect x="820" y="240" width="80" height="30" fill="#ffffff" stroke="#ccc"/>
  <text x="830" y="260" class="text">0</text>
  <rect x="900" y="240" width="150" height="30" fill="#ffffff" stroke="#ccc"/>
  <text x="910" y="260" class="text">0</text>
  <rect x="1050" y="240" width="50" height="30" fill="#ffffff" stroke="#ccc"/>
  <text x="1060" y="260" class="text">0</text>
  <rect x="1100" y="240" width="100" height="30" fill="#ffffff" stroke="#ccc"/>
  <text x="1110" y="260" class="text">0</text>
  
  <!-- Row 8 -->
  <rect x="0" y="270" width="100" height="30" fill="#ffffff" stroke="#ccc"/>
  <text x="10" y="290" class="text">X</text>
  <rect x="100" y="270" width="100" height="30" fill="#ffffff" stroke="#ccc"/>
  <text x="110" y="290" class="text">0</text>
  <rect x="200" y="270" width="100" height="30" fill="#ffffff" stroke="#ccc"/>
  <text x="210" y="290" class="text">0</text>
  <rect x="300" y="270" width="60" height="30" fill="#ffffff" stroke="#ccc"/>
  <text x="310" y="290" class="text">0</text>
  <rect x="360" y="270" width="50" height="30" fill="#ffffff" stroke="#ccc"/>
  <text x="370" y="290" class="text">0</text>
  <rect x="410" y="270" width="60" height="30" fill="#ffffff" stroke="#ccc"/>
  <text x="420" y="290" class="text">0</text>
  <rect x="470" y="270" width="50" height="30" fill="#ffffff" stroke="#ccc"/>
  <text x="480" y="290" class="text">0</text>
  <rect x="520" y="270" width="80" height="30" fill="#ffffff" stroke="#ccc"/>
  <text x="530" y="290" class="text">0</text>
  <rect x="600" y="270" width="60" height="30" fill="#ffffff" stroke="#ccc"/>
  <text x="610" y="290" class="text">0</text>
  <rect x="660" y="270" width="50" height="30" fill="#ffffff" stroke="#ccc"/>
  <text x="670" y="290" class="text">0</text>
  <rect x="710" y="270" width="60" height="30" fill="#ffffff" stroke="#ccc"/>
  <text x="720" y="290" class="text">0</text>
  <rect x="770" y="270" width="50" height="30" fill="#ffffff" stroke="#ccc"/>
  <text x="780" y="290" class="text">0</text>
  <rect x="820" y="270" width="80" height="30" fill="#ffffff" stroke="#ccc"/>
  <text x="830" y="290" class="text">0</text>
  <rect x="900" y="270" width="150" height="30" fill="#ffffff" stroke="#ccc"/>
  <text x="910" y="290" class="text">0</text>
  <rect x="1050" y="270" width="50" height="30" fill="#ffffff" stroke="#ccc"/>
  <text x="1060" y="290" class="text">0</text>
  <rect x="1100" y="270" width="100" height="30" fill="#ffffff" stroke="#ccc"/>
  <text x="1110" y="290" class="text">0</text>
  
  <!-- Row 9 -->
  <rect x="0" y="300" width="100" height="30" fill="#ffffff" stroke="#ccc"/>
  <text x="10" y="320" class="text">X</text>
  <rect x="100" y="300" width="100" height="30" fill="#ffffff" stroke="#ccc"/>
  <text x="110" y="320" class="text">0</text>
  <rect x="200" y="300" width="100" height="30" fill="#ffffff" stroke="#ccc"/>
  <text x="210" y="320" class="text">0</text>
  <rect x="300" y="300" width="60" height="30" fill="#ffffff" stroke="#ccc"/>
  <text x="310" y="320" class="text">0</text>
  <rect x="360" y="300" width="50" height="30" fill="#ffffff" stroke="#ccc"/>
  <text x="370" y="320" class="text">0</text>
  <rect x="410" y="300" width="60" height="30" fill="#ffffff" stroke="#ccc"/>
  <text x="420" y="320" class="text">0</text>
  <rect x="470" y="300" width="50" height="30" fill="#ffffff" stroke="#ccc"/>
  <text x="480" y="320" class="text">0</text>
  <rect x="520" y="300" width="80" height="30" fill="#ffffff" stroke="#ccc"/>
  <text x="530" y="320" class="text">0</text>
  <rect x="600" y="300" width="60" height="30" fill="#ffffff" stroke="#ccc"/>
  <text x="610" y="320" class="text">0</text>
  <rect x="660" y="300" width="50" height="30" fill="#ffffff" stroke="#ccc"/>
  <text x="670" y="320" class="text">0</text>
  <rect x="710" y="300" width="60" height="30" fill="#ffffff" stroke="#ccc"/>
  <text x="720" y="320" class="text">0</text>
  <rect x="770" y="300" width="50" height="30" fill="#ffffff" stroke="#ccc"/>
  <text x="780" y="320" class="text">0</text>
  <rect x="820" y="300" width="80" height="30" fill="#ffffff" stroke="#ccc"/>
  <text x="830" y="320" class="text">0</text>
  <rect x="900" y="300" width="150" height="30" fill="#ffffff" stroke="#ccc"/>
  <text x="910" y="320" class="text">0</text>
  <rect x="1050" y="300" width="50" height="30" fill="#ffffff" stroke="#ccc"/>
  <text x="1060" y="320" class="text">0</text>
  <rect x="1100" y="300" width="100" height="30" fill="#ffffff" stroke="#ccc"/>
  <text x="1110" y="320" class="text">0</text>
  
  <!-- Row 10 -->
  <rect x="0" y="330" width="100" height="30" fill="#ffffff" stroke="#ccc"/>
  <text x="10" y="350" class="text">X</text>
  <rect x="100" y="330" width="100" height="30" fill="#ffffff" stroke="#ccc"/>
  <text x="110" y="350" class="text">0</text>
  <rect x="200" y="330" width="100" height="30" fill="#ffffff" stroke="#ccc"/>
  <text x="210" y="350" class="text">0</text>
  <rect x="300" y="330" width="60" height="30" fill="#ffffff" stroke="#ccc"/>
  <text x="310" y="350" class="text">0</text>
  <rect x="360" y="330" width="50" height="30" fill="#ffffff" stroke="#ccc"/>
  <text x="370" y="350" class="text">0</text>
  <rect x="410" y="330" width="60" height="30" fill="#ffffff" stroke="#ccc"/>
  <text x="420" y="350" class="text">0</text>
  <rect x="470" y="330" width="50" height="30" fill="#ffffff" stroke="#ccc"/>
  <text x="480" y="350" class="text">0</text>
  <rect x="520" y="330" width="80" height="30" fill="#ffffff" stroke="#ccc"/>
  <text x="530" y="350" class="text">0</text>
  <rect x="600" y="330" width="60" height="30" fill="#ffffff" stroke="#ccc"/>
  <text x="610" y="350" class="text">0</text>
  <rect x="660" y="330" width="50" height="30" fill="#ffffff" stroke="#ccc"/>
  <text x="670" y="350" class="text">0</text>
  <rect x="710" y="330" width="60" height="30" fill="#ffffff" stroke="#ccc"/>
  <text x="720" y="350" class="text">0</text>
  <rect x="770" y="330" width="50" height="30" fill="#ffffff" stroke="#ccc"/>
  <text x="780" y="350" class="text">0</text>
  <rect x="820" y="330" width="80" height="30" fill="#ffffff" stroke="#ccc"/>
  <text x="830" y="350" class="text">0</text>
  <rect x="900" y="330" width="150" height="30" fill="#ffffff" stroke="#ccc"/>
  <text x="910" y="350" class="text">0</text>
  <rect x="1050" y="330" width="50" height="30" fill="#ffffff" stroke="#ccc"/>
  <text x="1060" y="350" class="text">0</text>
  <rect x="1100" y="330" width="100" height="30" fill="#ffffff" stroke="#ccc"/>
  <text x="1110" y="350" class="text">0</text>
  
  <!-- Total Row -->
  <rect x="0" y="360" width="100" height="30" fill="#d5e8d4" stroke="#ccc"/>
  <text x="10" y="380" class="text total-text">Total</text>
  
  <rect x="100" y="360" width="100" height="30" fill="#d5e8d4" stroke="#ccc"/>
  <text x="110" y="380" class="text total-text">0</text>
  
  <rect x="200" y="360" width="100" height="30" fill="#d5e8d4" stroke="#ccc"/>
  <text x="210" y="380" class="text total-text">0</text>
  
  <!-- Attritional Total columns -->
  <rect x="300" y="360" width="60" height="30" fill="#d5e8d4" stroke="#ccc"/>
  <text x="310" y="380" class="text total-text">0</text>
  
  <rect x="360" y="360" width="50" height="30" fill="#d5e8d4" stroke="#ccc"/>
  <text x="370" y="380" class="text total-text">0</text>
  
  <rect x="410" y="360" width="60" height="30" fill="#d5e8d4" stroke="#ccc"/>
  <text x="420" y="380" class="text total-text">0</text>
  
  <rect x="470" y="360" width="50" height="30" fill="#d5e8d4" stroke="#ccc"/>
  <text x="480" y="380" class="text total-text">0</text>
  
  <rect x="520" y="360" width="80" height="30" fill="#d5e8d4" stroke="#ccc"/>
  <text x="530" y="380" class="text total-text">0</text>
  
  <!-- Large Total columns -->
  <rect x="600" y="360" width="60" height="30" fill="#d5e8d4" stroke="#ccc"/>
  <text x="610" y="380" class="text total-text">0</text>
  
  <rect x="660" y="360" width="50" height="30" fill="#d5e8d4" stroke="#ccc"/>
  <text x="670" y="380" class="text total-text">0</text>
  
  <rect x="710" y="360" width="60" height="30" fill="#d5e8d4" stroke="#ccc"/>
  <text x="720" y="380" class="text total-text">0</text>
  
  <rect x="770" y="360" width="50" height="30" fill="#d5e8d4" stroke="#ccc"/>
  <text x="780" y="380" class="text total-text">0</text>
  
  <rect x="820" y="360" width="80" height="30" fill="#d5e8d4" stroke="#ccc"/>
  <text x="830" y="380" class="text total-text">0</text>
  
  <!-- Total Ultimate Total -->
  <rect x="900" y="360" width="150" height="30" fill="#d5e8d4" stroke="#ccc"/>
  <text x="910" y="380" class="text total-text">0</text>
  
  <!-- Comm. Total -->
  <rect x="1050" y="360" width="50" height="30" fill="#d5e8d4" stroke="#ccc"/>
  <text x="1060" y="380" class="text total-text">0</text>
  
  <!-- CCR Total -->
  <rect x="1100" y="360" width="100" height="30" fill="#d5e8d4" stroke="#ccc"/>
  <text x="1110" y="380" class="text total-text">0</text>
</svg>