<svg xmlns="http://www.w3.org/2000/svg" width="1200" height="420" font-family="Arial, sans-serif">

  <!-- Header Row -->
  <rect x="0" y="0" width="1200" height="30" fill="#d5e8d4" stroke="#ccc"/>
  <rect x="0" y="0" width="200" height="60" fill="#d5e8d4" stroke="#ccc"/>
  <text x="100" y="35" font-size="16" text-anchor="middle" font-weight="bold">Period</text>
  
  <rect x="200" y="0" width="150" height="60" fill="#d5e8d4" stroke="#ccc"/>
  <text x="275" y="35" font-size="16" text-anchor="middle" font-weight="bold">GWP</text>
  
  <rect x="350" y="0" width="150" height="60" fill="#d5e8d4" stroke="#ccc"/>
  <text x="425" y="35" font-size="16" text-anchor="middle" font-weight="bold">GEP</text>
  
  <rect x="500" y="0" width="700" height="30" fill="#d5e8d4" stroke="#ccc"/>
  <text x="850" y="20" font-size="16" text-anchor="middle" font-weight="bold">Earned Loss Ratios</text>
  
  <!-- Subheader -->
  <rect x="500" y="30" width="700" height="30" fill="#d5e8d4" stroke="#ccc"/>
  <rect x="500" y="30" width="200" height="30" fill="#d5e8d4" stroke="#ccc"/>
  <text x="600" y="50" font-size="14" text-anchor="middle" fill="red">Attritional</text>
  
  <rect x="700" y="30" width="200" height="30" fill="#d5e8d4" stroke="#ccc"/>
  <text x="800" y="50" font-size="14" text-anchor="middle" fill="red">Large</text>
  
  <rect x="900" y="30" width="300" height="30" fill="#d5e8d4" stroke="#ccc"/>
  <text x="1050" y="50" font-size="14" text-anchor="middle" fill="red">Total</text>

  <!-- Background for the empty space under Period/GWP/GEP in the third header row -->
  <rect x="0" y="60" width="500" height="30" fill="#d5e8d4" stroke="#ccc"/>
  
  <!-- Background for the empty space under Attritional/Large/Total in the third header row -->
  <rect x="500" y="60" width="700" height="30" fill="#d5e8d4" stroke="#ccc"/>

  <!-- Data Rows (8) -->
  <g font-size="12" text-anchor="middle">
    <!-- Row 1 -->
    <rect x="0" y="90" width="200" height="30" fill="#fff" stroke="#ccc"/>
    <text x="100" y="110" fill="black">x</text>
    <rect x="200" y="90" width="150" height="30" fill="#fff" stroke="#ccc"/>
    <text x="275" y="110" fill="green">0</text>
    <rect x="350" y="90" width="150" height="30" fill="#fff" stroke="#ccc"/>
    <text x="425" y="110" fill="green">0</text>
    <rect x="500" y="90" width="200" height="30" fill="#fff" stroke="#ccc"/>
    <text x="600" y="110" fill="red">0.0%</text>
    <rect x="700" y="90" width="200" height="30" fill="#fff" stroke="#ccc"/>
    <text x="800" y="110" fill="red">0.0%</text>
    <rect x="900" y="90" width="300" height="30" fill="#fff" stroke="#ccc"/>
    <text x="1050" y="110" fill="red">0.0%</text>

    <!-- Row 2 -->
    <rect x="0" y="120" width="200" height="30" fill="#fff" stroke="#ccc"/>
    <text x="100" y="140" fill="black">x</text>
    <rect x="200" y="120" width="150" height="30" fill="#fff" stroke="#ccc"/>
    <text x="275" y="140" fill="green">0</text>
    <rect x="350" y="120" width="150" height="30" fill="#fff" stroke="#ccc"/>
    <text x="425" y="140" fill="green">0</text>
    <rect x="500" y="120" width="200" height="30" fill="#fff" stroke="#ccc"/>
    <text x="600" y="140" fill="red">0.0%</text>
    <rect x="700" y="120" width="200" height="30" fill="#fff" stroke="#ccc"/>
    <text x="800" y="140" fill="red">0.0%</text>
    <rect x="900" y="120" width="300" height="30" fill="#fff" stroke="#ccc"/>
    <text x="1050" y="140" fill="red">0.0%</text>

    <!-- Row 3 -->
    <rect x="0" y="150" width="200" height="30" fill="#fff" stroke="#ccc"/>
    <text x="100" y="170" fill="black">x</text>
    <rect x="200" y="150" width="150" height="30" fill="#fff" stroke="#ccc"/>
    <text x="275" y="170" fill="green">0</text>
    <rect x="350" y="150" width="150" height="30" fill="#fff" stroke="#ccc"/>
    <text x="425" y="170" fill="green">0</text>
    <rect x="500" y="150" width="200" height="30" fill="#fff" stroke="#ccc"/>
    <text x="600" y="170" fill="red">0.0%</text>
    <rect x="700" y="150" width="200" height="30" fill="#fff" stroke="#ccc"/>
    <text x="800" y="170" fill="red">0.0%</text>
    <rect x="900" y="150" width="300" height="30" fill="#fff" stroke="#ccc"/>
    <text x="1050" y="170" fill="red">0.0%</text>

    <!-- Row 4 -->
    <rect x="0" y="180" width="200" height="30" fill="#fff" stroke="#ccc"/>
    <text x="100" y="200" fill="black">x</text>
    <rect x="200" y="180" width="150" height="30" fill="#fff" stroke="#ccc"/>
    <text x="275" y="200" fill="green">0</text>
    <rect x="350" y="180" width="150" height="30" fill="#fff" stroke="#ccc"/>
    <text x="425" y="200" fill="green">0</text>
    <rect x="500" y="180" width="200" height="30" fill="#fff" stroke="#ccc"/>
    <text x="600" y="200" fill="red">0.0%</text>
    <rect x="700" y="180" width="200" height="30" fill="#fff" stroke="#ccc"/>
    <text x="800" y="200" fill="red">0.0%</text>
    <rect x="900" y="180" width="300" height="30" fill="#fff" stroke="#ccc"/>
    <text x="1050" y="200" fill="red">0.0%</text>

    <!-- Row 5 -->
    <rect x="0" y="210" width="200" height="30" fill="#fff" stroke="#ccc"/>
    <text x="100" y="230" fill="black">x</text>
    <rect x="200" y="210" width="150" height="30" fill="#fff" stroke="#ccc"/>
    <text x="275" y="230" fill="green">0</text>
    <rect x="350" y="210" width="150" height="30" fill="#fff" stroke="#ccc"/>
    <text x="425" y="230" fill="green">0</text>
    <rect x="500" y="210" width="200" height="30" fill="#fff" stroke="#ccc"/>
    <text x="600" y="230" fill="red">0.0%</text>
    <rect x="700" y="210" width="200" height="30" fill="#fff" stroke="#ccc"/>
    <text x="800" y="230" fill="red">0.0%</text>
    <rect x="900" y="210" width="300" height="30" fill="#fff" stroke="#ccc"/>
    <text x="1050" y="230" fill="red">0.0%</text>

    <!-- Row 6 -->
    <rect x="0" y="240" width="200" height="30" fill="#fff" stroke="#ccc"/>
    <text x="100" y="260" fill="black">x</text>
    <rect x="200" y="240" width="150" height="30" fill="#fff" stroke="#ccc"/>
    <text x="275" y="260" fill="green">0</text>
    <rect x="350" y="240" width="150" height="30" fill="#fff" stroke="#ccc"/>
    <text x="425" y="260" fill="green">0</text>
    <rect x="500" y="240" width="200" height="30" fill="#fff" stroke="#ccc"/>
    <text x="600" y="260" fill="red">0.0%</text>
    <rect x="700" y="240" width="200" height="30" fill="#fff" stroke="#ccc"/>
    <text x="800" y="260" fill="red">0.0%</text>
    <rect x="900" y="240" width="300" height="30" fill="#fff" stroke="#ccc"/>
    <text x="1050" y="260" fill="red">0.0%</text>

    <!-- Row 7 -->
    <rect x="0" y="270" width="200" height="30" fill="#fff" stroke="#ccc"/>
    <text x="100" y="290" fill="black">x</text>
    <rect x="200" y="270" width="150" height="30" fill="#fff" stroke="#ccc"/>
    <text x="275" y="290" fill="green">0</text>
    <rect x="350" y="270" width="150" height="30" fill="#fff" stroke="#ccc"/>
    <text x="425" y="290" fill="green">0</text>
    <rect x="500" y="270" width="200" height="30" fill="#fff" stroke="#ccc"/>
    <text x="600" y="290" fill="red">0.0%</text>
    <rect x="700" y="270" width="200" height="30" fill="#fff" stroke="#ccc"/>
    <text x="800" y="290" fill="red">0.0%</text>
    <rect x="900" y="270" width="300" height="30" fill="#fff" stroke="#ccc"/>
    <text x="1050" y="290" fill="red">0.0%</text>

    <!-- Row 8 -->
    <rect x="0" y="300" width="200" height="30" fill="#fff" stroke="#ccc"/>
    <text x="100" y="320" fill="black">x</text>
    <rect x="200" y="300" width="150" height="30" fill="#fff" stroke="#ccc"/>
    <text x="275" y="320" fill="green">0</text>
    <rect x="350" y="300" width="150" height="30" fill="#fff" stroke="#ccc"/>
    <text x="425" y="320" fill="green">0</text>
    <rect x="500" y="300" width="200" height="30" fill="#fff" stroke="#ccc"/>
    <text x="600" y="320" fill="red">0.0%</text>
    <rect x="700" y="300" width="200" height="30" fill="#fff" stroke="#ccc"/>
    <text x="800" y="320" fill="red">0.0%</text>
    <rect x="900" y="300" width="300" height="30" fill="#fff" stroke="#ccc"/>
    <text x="1050" y="320" fill="red">0.0%</text>
  </g>

  <!-- Total Row -->
  <rect x="0" y="330" width="200" height="30" fill="#d5e8d4" stroke="#ccc"/>
  <text x="100" y="350" font-size="14" text-anchor="middle" font-weight="bold">Total</text>
  
  <rect x="200" y="330" width="150" height="30" fill="#d5e8d4" stroke="#ccc"/>
  <text x="275" y="350" font-size="14" text-anchor="middle" font-weight="bold">0</text>
  
  <rect x="350" y="330" width="150" height="30" fill="#d5e8d4" stroke="#ccc"/>
  <text x="425" y="350" font-size="14" text-anchor="middle" font-weight="bold">0</text>
  
  <rect x="500" y="330" width="200" height="30" fill="#d5e8d4" stroke="#ccc"/>
  <text x="600" y="350" font-size="14" text-anchor="middle" font-weight="bold">0.0%</text>
  
  <rect x="700" y="330" width="200" height="30" fill="#d5e8d4" stroke="#ccc"/>
  <text x="800" y="350" font-size="14" text-anchor="middle" font-weight="bold">0.0%</text>
  
  <rect x="900" y="330" width="300" height="30" fill="#d5e8d4" stroke="#ccc"/>
  <text x="1050" y="350" font-size="14" text-anchor="middle" font-weight="bold">0.0%</text>
</svg>